<svg width="286" height="76" viewBox="0 0 286 76" fill="none" xmlns="http://www.w3.org/2000/svg">
<g clip-path="url(#clip0_127_44)">
<path d="M52.5646 5.97552L53.669 3.68797C52.0796 2.9339 50.4236 2.28629 48.7485 1.75907L47.9742 4.17463C49.5368 4.66636 51.0814 5.27214 52.5646 5.97552Z" fill="white"/>
<path d="M38.2611 2.53215C39.9107 2.58411 41.5641 2.74887 43.1765 3.02134L43.6065 0.523412C41.8802 0.231924 40.1103 0.0544957 38.3443 0L38.2611 2.53215Z" fill="white"/>
<path d="M56.8618 8.38601C58.1595 9.23513 59.4123 10.1793 60.5871 11.1906L62.2661 9.27695C61.0068 8.19337 59.6631 7.18203 58.2733 6.27208L56.8618 8.38601Z" fill="white"/>
<path d="M7.67833 21.5245C7.67833 20.6095 7.33664 19.7794 6.7902 19.1229C11.6967 11.3947 19.5337 5.74233 28.461 3.55363C30.053 3.16202 31.6885 2.88067 33.3252 2.70958L33.0578 0.190102C31.3058 0.372599 29.5526 0.676761 27.8467 1.09498V1.09372C18.2706 3.44084 9.86537 9.5076 4.60956 17.7998C4.36129 17.7491 4.10279 17.7225 3.83916 17.7225C1.7225 17.7225 0 19.4284 0 21.5245C0 23.6207 1.7225 25.3266 3.83916 25.3266C5.95582 25.3266 7.67833 23.6207 7.67833 21.5245ZM3.83916 22.7919C3.13276 22.7919 2.55944 22.2241 2.55944 21.5245C2.55944 20.825 3.13276 20.2572 3.83916 20.2572C4.54557 20.2572 5.11889 20.825 5.11889 21.5245C5.11889 22.2241 4.54557 22.7919 3.83916 22.7919Z" fill="white"/>
<path d="M11.9578 66.7231C13.217 67.8066 14.5607 68.818 15.9505 69.7279L17.3633 67.614C16.0657 66.7649 14.8128 65.8207 13.638 64.8094L11.9578 66.7231Z" fill="white"/>
<path d="M20.5549 72.3108C22.1443 73.0648 23.8003 73.7125 25.4755 74.2397L26.2497 71.8241C24.6872 71.3324 23.1425 70.7279 21.6593 70.0232L20.5549 72.3108Z" fill="white"/>
<path d="M30.6173 75.4766C32.3437 75.7681 34.1135 75.9455 35.8795 76L35.9614 73.4678C34.3119 73.4159 32.6585 73.2511 31.046 72.9787L30.6173 75.4766Z" fill="white"/>
<path d="M70.3846 50.6734C68.268 50.6734 66.5455 52.3793 66.5455 54.4755C66.5455 55.3905 66.8871 56.2206 67.4336 56.8771C62.5271 64.6053 54.6901 70.2577 45.7628 72.4464C44.1708 72.838 42.5353 73.1193 40.8986 73.2904L41.166 75.8099C42.918 75.6274 44.6712 75.3232 46.377 74.905C55.9532 72.5579 64.3584 66.4924 69.6129 58.2002C69.8625 58.2509 70.121 58.2775 70.3846 58.2775C72.5013 58.2775 74.2238 56.5716 74.2238 54.4755C74.2238 52.3793 72.5013 50.6734 70.3846 50.6734ZM70.3846 55.7428C69.6782 55.7428 69.1049 55.175 69.1049 54.4755C69.1049 53.7759 69.6782 53.2081 70.3846 53.2081C71.091 53.2081 71.6643 53.7759 71.6643 54.4755C71.6643 55.175 71.091 55.7428 70.3846 55.7428Z" fill="white"/>
<path d="M67.8252 38.0025C67.8252 38 67.8252 38 67.8252 37.9975C67.8239 21.228 54.0464 7.58378 37.1119 7.58378C20.1773 7.58378 6.39984 21.228 6.39856 37.9975C6.39856 38 6.39856 38 6.39856 38.0025C6.39984 54.772 20.1773 68.4162 37.1119 68.4162C54.0464 68.4162 67.8239 54.772 67.8252 38.0025ZM37.1119 10.1185C51.4012 10.1185 63.2297 20.7185 65.0226 34.3931C60.3554 29.5608 49.7325 20.2572 37.1119 20.2572C24.4913 20.2572 13.8683 29.5608 9.20115 34.3931C10.994 20.7185 22.8225 10.1185 37.1119 10.1185ZM43.6461 24.2569L41.0828 28.6546C40.2382 28.301 39.3335 28.0653 38.3929 27.9487V22.8603C38.5106 22.8667 38.6296 22.8717 38.7474 22.8793C40.4839 23.0631 42.1284 23.5472 43.6461 24.2569ZM37.1119 45.6041C32.8773 45.6041 29.4335 42.1936 29.4335 38C29.4335 33.8064 32.8773 30.3959 37.1119 30.3959C41.3465 30.3959 44.7902 33.8064 44.7902 38C44.7902 42.1936 41.3465 45.6041 37.1119 45.6041ZM28.969 31.88L24.5105 29.3314C25.5547 27.8461 26.8587 26.5546 28.3586 25.5205L30.9321 29.9359C30.1924 30.4935 29.5321 31.1475 28.969 31.88ZM30.9321 46.0641L28.3586 50.4795C26.8587 49.4454 25.5547 48.1539 24.5105 46.6686L28.969 44.12C29.5321 44.8525 30.1924 45.5065 30.9321 46.0641ZM45.2547 44.12L49.7133 46.6686C48.669 48.1539 47.365 49.4454 45.8652 50.4795L43.2916 46.0641C44.0313 45.5065 44.6917 44.8525 45.2547 44.12ZM43.2916 29.9359L45.8652 25.5205C47.365 26.5546 48.669 27.8461 49.7133 29.3314L45.2547 31.88C44.6917 31.1475 44.0313 30.4935 43.2916 29.9359ZM35.8321 22.8616V27.95C34.8916 28.0666 33.9868 28.3023 33.1422 28.6559L30.5789 24.2582C32.0966 23.5485 33.7411 23.0644 35.4789 22.8819C35.5967 22.8717 35.7144 22.8679 35.8321 22.8616ZM23.2346 31.5289L27.6752 34.0674C27.3182 34.9039 27.0801 35.7999 26.9624 36.7314H21.8192C21.9753 34.8836 22.4693 33.1334 23.2346 31.5289ZM26.9624 39.2673C27.0801 40.1988 27.3182 41.0949 27.6752 41.9313L23.2346 44.4698C22.4693 42.8666 21.9753 41.1164 21.8192 39.2661L26.9624 39.2673ZM30.5776 51.7431L33.1409 47.3454C33.9855 47.699 34.8903 47.9347 35.8309 48.0513V53.1397C35.7131 53.1333 35.5941 53.1283 35.4764 53.1207C33.7398 52.9369 32.0954 52.4528 30.5776 51.7431ZM38.3916 53.1384V48.05C39.3322 47.9334 40.2369 47.6977 41.0816 47.3441L43.6448 51.7418C42.1271 52.4515 40.4827 52.9356 38.7448 53.1181C38.6271 53.1283 38.5093 53.1321 38.3916 53.1384ZM50.9892 44.4711L46.5485 41.9326C46.9056 41.0961 47.1436 40.2001 47.2613 39.2686H52.4045C52.2484 41.1164 51.7544 42.8666 50.9892 44.4711ZM47.2613 36.7327C47.1436 35.8012 46.9056 34.9051 46.5485 34.0687L50.9892 31.5302C51.7544 33.1334 52.2484 34.8836 52.4045 36.7339L47.2613 36.7327ZM19.1958 38C19.1958 42.3026 20.7519 46.2504 23.3344 49.325C16.3637 45.5267 11.1438 40.0265 9.35472 37.9987C11.1438 35.9697 16.3637 30.4631 23.3433 26.6649C20.7558 29.7407 19.1958 33.6923 19.1958 38ZM55.028 38C55.028 33.6974 53.4718 29.7496 50.8893 26.675C57.86 30.4733 63.08 35.9735 64.869 38.0013C63.08 40.0303 57.86 45.5369 50.8804 49.3351C53.468 46.2593 55.028 42.3077 55.028 38ZM37.1119 65.8815C22.8225 65.8815 10.994 55.2815 9.20115 41.6069C13.8683 46.4392 24.4913 55.7428 37.1119 55.7428C49.7325 55.7428 60.3554 46.4392 65.0226 41.6069C63.2297 55.2815 51.4012 65.8815 37.1119 65.8815Z" fill="white"/>
<mask id="path-10-outside-1_127_44" maskUnits="userSpaceOnUse" x="89.8269" y="22.3199" width="99" height="31" fill="black">
<rect fill="white" x="89.8269" y="22.3199" width="99" height="31"/>
<path d="M98.9647 46.9508L96.9647 38.7551V52.3463H90.8269V23.7297H97.2061L101.447 37.9356L105.654 23.6956H111.999V52.3463H105.861V38.7551L103.93 46.9508H98.9647ZM101.447 40.3601L96.6889 24.4127H91.5165V51.6634H96.2751V33.0523L99.5164 46.2679H103.378L106.551 32.8816V51.6634H111.309V24.3785H106.172L101.447 40.3601ZM120.964 23.7297H126.895L133.792 52.3463H127.619L126.378 46.6093H121.516L120.275 52.3463H114.102L120.964 23.7297ZM120.93 45.9264H126.964L128.171 51.6634H132.93L126.344 24.4127H121.516L114.964 51.6634H119.723L120.93 45.9264ZM123.93 31.7205L126.24 42.8188H121.654L123.93 31.7205ZM125.413 42.1359L123.93 35.1354L122.482 42.1359H125.413ZM151.516 42.4774V46.1996C151.55 49.5461 148.861 52.722 145.378 52.722C145.205 52.6878 145.102 52.6878 144.964 52.6878H143.516C143.102 52.6878 142.688 52.6878 142.274 52.722H141.757C138.274 52.722 135.585 49.6827 135.585 46.302V29.7399C135.585 26.3933 138.309 23.3199 141.757 23.3199C142.447 23.3541 143.136 23.3541 143.792 23.3541H145.343C148.826 23.3541 151.55 26.3933 151.516 29.774V34.2475H145.309V31.7205C145.378 28.4081 145.171 28.2715 143.033 28.2715C142.205 28.2715 141.688 28.4081 141.688 29.4667V46.5752C141.688 47.7363 142.654 47.7704 143.516 47.7704C145.102 47.7021 145.309 45.7898 145.309 43.536V42.4774H151.516ZM145.998 30.8668V33.5645H150.826V29.774C150.826 26.8031 148.481 24.0371 145.378 24.0371H144.516C143.585 24.0371 142.688 24.0029 141.757 24.0029C138.757 24.0029 136.275 26.7348 136.275 29.7399V46.302C136.275 49.3412 138.723 52.039 141.757 52.039C142.481 52.039 143.274 52.0731 144.033 52.0731H144.205C144.861 52.0731 145.55 52.0731 146.171 51.9707C148.861 51.5609 150.826 48.9315 150.826 46.1996V43.1603H145.998V43.9799C145.998 45.8581 145.792 48.4875 143.24 48.4875C142.378 48.4875 140.999 48.146 140.999 46.5752V29.4667C140.999 27.8617 142.033 27.5885 143.033 27.5885C145.792 27.5885 145.998 28.5105 145.998 30.8668ZM160.309 41.6236V52.3463H154.171V23.7297H162.447C162.929 23.7297 163.412 23.6956 163.86 23.6956C164.378 23.6956 164.895 23.7639 165.378 23.9005C167.791 24.5834 169.998 26.9397 169.929 29.9106V31.1741C169.929 32.6425 169.895 34.1109 169.929 35.5793C169.998 37.8331 168.757 39.8479 167.24 40.9407L170.964 52.3463H164.688L161.378 41.6578C160.998 41.6236 160.653 41.6236 160.309 41.6236ZM159.619 40.9407L161.86 40.9748L165.205 51.6634H169.998L166.446 40.7016L166.826 40.3943C168.309 39.3357 169.24 37.5258 169.24 35.7159V29.9106C169.24 26.9738 166.86 24.3785 163.86 24.3785L154.86 24.4127V51.6634H159.619V40.9407ZM159.619 27.8617H162.515C163.964 27.8617 164.343 29.3301 164.343 30.0814V35.7159C164.343 36.7404 163.895 37.9014 162.688 37.9014L159.619 37.8673V27.8617ZM160.309 28.5447V37.1843C161.136 37.1843 161.895 37.2185 162.688 37.2185C163.447 37.2185 163.653 36.3306 163.653 35.7159V30.0814C163.688 29.2618 163.171 28.5105 162.515 28.5447H160.309ZM178.377 52.722C175.412 52.7561 172.377 50.0242 172.377 46.3703V29.7057C172.377 26.1543 175.343 23.3882 178.205 23.3541H182.101C184.998 23.3199 188.067 26.1201 188.067 29.7057L188.101 46.3703C188.101 50.0242 185.032 52.7561 182.101 52.722H178.377ZM173.067 46.3703C173.067 49.3071 175.412 52.039 178.377 52.039H182.101C185.032 52.039 187.412 49.2729 187.412 46.3703L187.377 29.7057C187.377 26.8372 184.998 24.0371 182.101 24.0371H178.205C175.412 24.0371 173.067 26.9055 173.067 29.7057V46.3703ZM179.895 48.4534C178.55 48.4534 177.791 47.6338 177.791 46.2679V32.4035C177.791 32.1303 177.757 31.7205 177.757 31.2766C177.722 30.7985 177.722 30.2863 177.791 29.8082C177.895 28.852 178.343 27.5544 179.86 27.5544H180.619C181.929 27.5544 182.688 28.8179 182.688 29.774V46.1654C182.688 48.1119 181.55 48.4534 179.895 48.4534ZM178.481 46.1654C178.412 47.224 179.032 47.8046 179.757 47.7704H179.826C181.101 47.7704 181.929 47.7021 181.998 46.1654C181.998 45.3117 181.963 44.4921 181.998 43.6726V31.1741C181.998 30.7643 181.963 30.3204 181.998 29.8765C182.032 28.9203 181.343 28.2715 180.619 28.2373H179.86C179.136 28.2373 178.412 28.8862 178.481 29.8765C178.515 30.3204 178.481 30.7643 178.481 31.1741V44.4238C178.446 44.9702 178.481 45.3458 178.481 46.1654Z"/>
</mask>
<path d="M98.9647 46.9508L96.9647 38.7551V52.3463H90.8269V23.7297H97.2061L101.447 37.9356L105.654 23.6956H111.999V52.3463H105.861V38.7551L103.93 46.9508H98.9647ZM101.447 40.3601L96.6889 24.4127H91.5165V51.6634H96.2751V33.0523L99.5164 46.2679H103.378L106.551 32.8816V51.6634H111.309V24.3785H106.172L101.447 40.3601ZM120.964 23.7297H126.895L133.792 52.3463H127.619L126.378 46.6093H121.516L120.275 52.3463H114.102L120.964 23.7297ZM120.93 45.9264H126.964L128.171 51.6634H132.93L126.344 24.4127H121.516L114.964 51.6634H119.723L120.93 45.9264ZM123.93 31.7205L126.24 42.8188H121.654L123.93 31.7205ZM125.413 42.1359L123.93 35.1354L122.482 42.1359H125.413ZM151.516 42.4774V46.1996C151.55 49.5461 148.861 52.722 145.378 52.722C145.205 52.6878 145.102 52.6878 144.964 52.6878H143.516C143.102 52.6878 142.688 52.6878 142.274 52.722H141.757C138.274 52.722 135.585 49.6827 135.585 46.302V29.7399C135.585 26.3933 138.309 23.3199 141.757 23.3199C142.447 23.3541 143.136 23.3541 143.792 23.3541H145.343C148.826 23.3541 151.55 26.3933 151.516 29.774V34.2475H145.309V31.7205C145.378 28.4081 145.171 28.2715 143.033 28.2715C142.205 28.2715 141.688 28.4081 141.688 29.4667V46.5752C141.688 47.7363 142.654 47.7704 143.516 47.7704C145.102 47.7021 145.309 45.7898 145.309 43.536V42.4774H151.516ZM145.998 30.8668V33.5645H150.826V29.774C150.826 26.8031 148.481 24.0371 145.378 24.0371H144.516C143.585 24.0371 142.688 24.0029 141.757 24.0029C138.757 24.0029 136.275 26.7348 136.275 29.7399V46.302C136.275 49.3412 138.723 52.039 141.757 52.039C142.481 52.039 143.274 52.0731 144.033 52.0731H144.205C144.861 52.0731 145.55 52.0731 146.171 51.9707C148.861 51.5609 150.826 48.9315 150.826 46.1996V43.1603H145.998V43.9799C145.998 45.8581 145.792 48.4875 143.24 48.4875C142.378 48.4875 140.999 48.146 140.999 46.5752V29.4667C140.999 27.8617 142.033 27.5885 143.033 27.5885C145.792 27.5885 145.998 28.5105 145.998 30.8668ZM160.309 41.6236V52.3463H154.171V23.7297H162.447C162.929 23.7297 163.412 23.6956 163.86 23.6956C164.378 23.6956 164.895 23.7639 165.378 23.9005C167.791 24.5834 169.998 26.9397 169.929 29.9106V31.1741C169.929 32.6425 169.895 34.1109 169.929 35.5793C169.998 37.8331 168.757 39.8479 167.24 40.9407L170.964 52.3463H164.688L161.378 41.6578C160.998 41.6236 160.653 41.6236 160.309 41.6236ZM159.619 40.9407L161.86 40.9748L165.205 51.6634H169.998L166.446 40.7016L166.826 40.3943C168.309 39.3357 169.24 37.5258 169.24 35.7159V29.9106C169.24 26.9738 166.86 24.3785 163.86 24.3785L154.86 24.4127V51.6634H159.619V40.9407ZM159.619 27.8617H162.515C163.964 27.8617 164.343 29.3301 164.343 30.0814V35.7159C164.343 36.7404 163.895 37.9014 162.688 37.9014L159.619 37.8673V27.8617ZM160.309 28.5447V37.1843C161.136 37.1843 161.895 37.2185 162.688 37.2185C163.447 37.2185 163.653 36.3306 163.653 35.7159V30.0814C163.688 29.2618 163.171 28.5105 162.515 28.5447H160.309ZM178.377 52.722C175.412 52.7561 172.377 50.0242 172.377 46.3703V29.7057C172.377 26.1543 175.343 23.3882 178.205 23.3541H182.101C184.998 23.3199 188.067 26.1201 188.067 29.7057L188.101 46.3703C188.101 50.0242 185.032 52.7561 182.101 52.722H178.377ZM173.067 46.3703C173.067 49.3071 175.412 52.039 178.377 52.039H182.101C185.032 52.039 187.412 49.2729 187.412 46.3703L187.377 29.7057C187.377 26.8372 184.998 24.0371 182.101 24.0371H178.205C175.412 24.0371 173.067 26.9055 173.067 29.7057V46.3703ZM179.895 48.4534C178.55 48.4534 177.791 47.6338 177.791 46.2679V32.4035C177.791 32.1303 177.757 31.7205 177.757 31.2766C177.722 30.7985 177.722 30.2863 177.791 29.8082C177.895 28.852 178.343 27.5544 179.86 27.5544H180.619C181.929 27.5544 182.688 28.8179 182.688 29.774V46.1654C182.688 48.1119 181.55 48.4534 179.895 48.4534ZM178.481 46.1654C178.412 47.224 179.032 47.8046 179.757 47.7704H179.826C181.101 47.7704 181.929 47.7021 181.998 46.1654C181.998 45.3117 181.963 44.4921 181.998 43.6726V31.1741C181.998 30.7643 181.963 30.3204 181.998 29.8765C182.032 28.9203 181.343 28.2715 180.619 28.2373H179.86C179.136 28.2373 178.412 28.8862 178.481 29.8765C178.515 30.3204 178.481 30.7643 178.481 31.1741V44.4238C178.446 44.9702 178.481 45.3458 178.481 46.1654Z" fill="white"/>
<path d="M98.9647 46.9508L96.9647 38.7551V52.3463H90.8269V23.7297H97.2061L101.447 37.9356L105.654 23.6956H111.999V52.3463H105.861V38.7551L103.93 46.9508H98.9647ZM101.447 40.3601L96.6889 24.4127H91.5165V51.6634H96.2751V33.0523L99.5164 46.2679H103.378L106.551 32.8816V51.6634H111.309V24.3785H106.172L101.447 40.3601ZM120.964 23.7297H126.895L133.792 52.3463H127.619L126.378 46.6093H121.516L120.275 52.3463H114.102L120.964 23.7297ZM120.93 45.9264H126.964L128.171 51.6634H132.93L126.344 24.4127H121.516L114.964 51.6634H119.723L120.93 45.9264ZM123.93 31.7205L126.24 42.8188H121.654L123.93 31.7205ZM125.413 42.1359L123.93 35.1354L122.482 42.1359H125.413ZM151.516 42.4774V46.1996C151.55 49.5461 148.861 52.722 145.378 52.722C145.205 52.6878 145.102 52.6878 144.964 52.6878H143.516C143.102 52.6878 142.688 52.6878 142.274 52.722H141.757C138.274 52.722 135.585 49.6827 135.585 46.302V29.7399C135.585 26.3933 138.309 23.3199 141.757 23.3199C142.447 23.3541 143.136 23.3541 143.792 23.3541H145.343C148.826 23.3541 151.55 26.3933 151.516 29.774V34.2475H145.309V31.7205C145.378 28.4081 145.171 28.2715 143.033 28.2715C142.205 28.2715 141.688 28.4081 141.688 29.4667V46.5752C141.688 47.7363 142.654 47.7704 143.516 47.7704C145.102 47.7021 145.309 45.7898 145.309 43.536V42.4774H151.516ZM145.998 30.8668V33.5645H150.826V29.774C150.826 26.8031 148.481 24.0371 145.378 24.0371H144.516C143.585 24.0371 142.688 24.0029 141.757 24.0029C138.757 24.0029 136.275 26.7348 136.275 29.7399V46.302C136.275 49.3412 138.723 52.039 141.757 52.039C142.481 52.039 143.274 52.0731 144.033 52.0731H144.205C144.861 52.0731 145.55 52.0731 146.171 51.9707C148.861 51.5609 150.826 48.9315 150.826 46.1996V43.1603H145.998V43.9799C145.998 45.8581 145.792 48.4875 143.24 48.4875C142.378 48.4875 140.999 48.146 140.999 46.5752V29.4667C140.999 27.8617 142.033 27.5885 143.033 27.5885C145.792 27.5885 145.998 28.5105 145.998 30.8668ZM160.309 41.6236V52.3463H154.171V23.7297H162.447C162.929 23.7297 163.412 23.6956 163.86 23.6956C164.378 23.6956 164.895 23.7639 165.378 23.9005C167.791 24.5834 169.998 26.9397 169.929 29.9106V31.1741C169.929 32.6425 169.895 34.1109 169.929 35.5793C169.998 37.8331 168.757 39.8479 167.24 40.9407L170.964 52.3463H164.688L161.378 41.6578C160.998 41.6236 160.653 41.6236 160.309 41.6236ZM159.619 40.9407L161.86 40.9748L165.205 51.6634H169.998L166.446 40.7016L166.826 40.3943C168.309 39.3357 169.24 37.5258 169.24 35.7159V29.9106C169.24 26.9738 166.86 24.3785 163.86 24.3785L154.86 24.4127V51.6634H159.619V40.9407ZM159.619 27.8617H162.515C163.964 27.8617 164.343 29.3301 164.343 30.0814V35.7159C164.343 36.7404 163.895 37.9014 162.688 37.9014L159.619 37.8673V27.8617ZM160.309 28.5447V37.1843C161.136 37.1843 161.895 37.2185 162.688 37.2185C163.447 37.2185 163.653 36.3306 163.653 35.7159V30.0814C163.688 29.2618 163.171 28.5105 162.515 28.5447H160.309ZM178.377 52.722C175.412 52.7561 172.377 50.0242 172.377 46.3703V29.7057C172.377 26.1543 175.343 23.3882 178.205 23.3541H182.101C184.998 23.3199 188.067 26.1201 188.067 29.7057L188.101 46.3703C188.101 50.0242 185.032 52.7561 182.101 52.722H178.377ZM173.067 46.3703C173.067 49.3071 175.412 52.039 178.377 52.039H182.101C185.032 52.039 187.412 49.2729 187.412 46.3703L187.377 29.7057C187.377 26.8372 184.998 24.0371 182.101 24.0371H178.205C175.412 24.0371 173.067 26.9055 173.067 29.7057V46.3703ZM179.895 48.4534C178.55 48.4534 177.791 47.6338 177.791 46.2679V32.4035C177.791 32.1303 177.757 31.7205 177.757 31.2766C177.722 30.7985 177.722 30.2863 177.791 29.8082C177.895 28.852 178.343 27.5544 179.86 27.5544H180.619C181.929 27.5544 182.688 28.8179 182.688 29.774V46.1654C182.688 48.1119 181.55 48.4534 179.895 48.4534ZM178.481 46.1654C178.412 47.224 179.032 47.8046 179.757 47.7704H179.826C181.101 47.7704 181.929 47.7021 181.998 46.1654C181.998 45.3117 181.963 44.4921 181.998 43.6726V31.1741C181.998 30.7643 181.963 30.3204 181.998 29.8765C182.032 28.9203 181.343 28.2715 180.619 28.2373H179.86C179.136 28.2373 178.412 28.8862 178.481 29.8765C178.515 30.3204 178.481 30.7643 178.481 31.1741V44.4238C178.446 44.9702 178.481 45.3458 178.481 46.1654Z" stroke="white" mask="url(#path-10-outside-1_127_44)"/>
<path d="M192.587 23.6956H197.862L202.104 42.9215L206.311 23.6956H211.552L204.586 52.3466H199.518L192.587 23.6956ZM214.483 52.3466V23.6956H219.759V52.3466H214.483ZM223.242 29.6717C223.242 25.9494 226.069 23.4224 229.035 23.3541C230.069 23.3541 231.069 23.3199 232.104 23.3199C235.138 23.3199 237.759 25.9494 237.759 29.7058V33.4964H232.793V31.2084C232.793 29.3302 232.517 27.5886 230.586 27.5886C230.552 27.5886 230.276 27.6227 230.242 27.6227C229.311 27.691 228.448 28.4764 228.448 29.8766C228.448 36.7064 238.586 37.1503 238.586 46.3706C238.586 50.127 235.759 52.7223 232.759 52.7223C231.517 52.7223 230.276 52.7223 229.035 52.6881C226.035 52.654 223.207 50.127 223.207 46.3706V42.5459H228.414V44.3558C228.38 46.4047 228.724 48.4536 230.931 48.4536C232.414 48.4536 233.379 47.7024 233.379 45.9266C233.379 39.2675 223.242 38.9261 223.242 29.6717ZM241.242 52.3466V23.6956H246.517V52.3466H241.242ZM265.828 29.6717V46.3706C265.828 50.127 263 52.6881 260 52.6881H256.31C253.31 52.6881 250.483 50.1611 250.483 46.3706V29.6717C250.483 25.9153 253.345 23.3541 256.345 23.3541H260C262.966 23.3882 265.828 25.9494 265.828 29.6717ZM255.655 31.9596V44.7655C255.655 45.4144 255.69 45.8925 255.759 46.712C255.793 48.1122 256.724 48.4536 257.931 48.4536C259.276 48.4536 260.379 48.4195 260.586 46.712C260.621 45.8583 260.655 45.0046 260.655 44.1509V30.662C260.655 30.2522 260.621 29.8083 260.621 29.3985C260.586 28.3398 259.828 27.691 258.966 27.5886C258.966 27.5544 258.276 27.5544 258.241 27.5544C255.724 27.5544 255.69 28.6813 255.69 30.662C255.655 31.0718 255.655 31.5157 255.655 31.9596ZM280.724 23.6956H286V52.3466H280.586L274.207 34.9648V52.3466H268.931V23.6956H274.517L280.724 40.292V23.6956Z" fill="white"/>
</g>
<defs>
<clipPath id="clip0_127_44">
<rect width="286" height="76" fill="white"/>
</clipPath>
</defs>
</svg>
