<svg width="692" height="184" viewBox="0 0 692 184" fill="none" xmlns="http://www.w3.org/2000/svg">
<g clip-path="url(#clip0_127_60)">
<path d="M127.184 14.467L129.856 8.92876C126.011 7.10312 122.004 5.53522 117.951 4.2588L116.077 10.107C119.858 11.2975 123.595 12.7641 127.184 14.467Z" fill="#0F0C6D"/>
<path d="M92.5758 6.13047C96.5671 6.25627 100.568 6.65515 104.469 7.31483L105.509 1.26721C101.332 0.561499 97.0501 0.131937 92.7771 0L92.5758 6.13047Z" fill="#0F0C6D"/>
<path d="M137.582 20.303C140.722 22.3587 143.753 24.6446 146.595 27.0931L150.658 22.46C147.611 19.8366 144.36 17.3881 140.997 15.185L137.582 20.303Z" fill="#0F0C6D"/>
<path d="M18.5783 52.1121C18.5783 49.8967 17.7516 47.887 16.4294 46.2976C28.301 27.5871 47.2633 13.9025 68.8637 8.60352C72.7156 7.65542 76.6728 6.97425 80.6331 6.56003L79.9859 0.460243C75.747 0.902079 71.5049 1.63847 67.3774 2.65101V2.64794C44.2071 8.33044 23.8701 23.0184 11.1532 43.0943C10.5525 42.9716 9.92702 42.9071 9.28917 42.9071C4.16774 42.9071 0 47.0371 0 52.1121C0 57.187 4.16774 61.317 9.28917 61.317C14.4106 61.317 18.5783 57.187 18.5783 52.1121ZM9.28917 55.1804C7.57996 55.1804 6.19278 53.8058 6.19278 52.1121C6.19278 50.4184 7.57996 49.0438 9.28917 49.0438C10.9984 49.0438 12.3856 50.4184 12.3856 52.1121C12.3856 53.8058 10.9984 55.1804 9.28917 55.1804Z" fill="#0F0C6D"/>
<path d="M28.9326 161.54C31.9795 164.163 35.2307 166.612 38.5933 168.815L42.0118 163.697C38.872 161.641 35.8407 159.355 32.9982 156.907L28.9326 161.54Z" fill="#0F0C6D"/>
<path d="M49.7343 175.068C53.58 176.894 57.5867 178.462 61.6399 179.738L63.5132 173.89C59.7325 172.699 55.9951 171.236 52.4064 169.53L49.7343 175.068Z" fill="#0F0C6D"/>
<path d="M74.0811 182.733C78.2581 183.439 82.5404 183.868 86.8134 184L87.0116 177.87C83.0203 177.744 79.0198 177.345 75.1183 176.685L74.0811 182.733Z" fill="#0F0C6D"/>
<path d="M170.301 122.683C165.18 122.683 161.012 126.813 161.012 131.888C161.012 134.103 161.839 136.113 163.161 137.702C151.29 156.413 132.327 170.098 110.727 175.396C106.875 176.345 102.918 177.026 98.9575 177.44L99.6047 183.54C103.844 183.098 108.086 182.362 112.213 181.349C135.383 175.666 155.721 160.982 168.434 140.906C169.038 141.028 169.664 141.093 170.301 141.093C175.423 141.093 179.591 136.963 179.591 131.888C179.591 126.813 175.423 122.683 170.301 122.683ZM170.301 134.956C168.592 134.956 167.205 133.582 167.205 131.888C167.205 130.194 168.592 128.82 170.301 128.82C172.011 128.82 173.398 130.194 173.398 131.888C173.398 133.582 172.011 134.956 170.301 134.956Z" fill="#0F0C6D"/>
<path d="M164.109 92.0061C164.109 92 164.109 92 164.109 91.9939C164.105 51.3941 130.77 18.3607 89.7953 18.3607C48.8208 18.3607 15.485 51.3941 15.4819 91.9939C15.4819 92 15.4819 92 15.4819 92.0061C15.485 132.606 48.8208 165.639 89.7953 165.639C130.77 165.639 164.105 132.606 164.109 92.0061ZM89.7953 24.4973C124.37 24.4973 152.989 50.1606 157.327 83.2676C146.035 71.5682 120.332 49.0438 89.7953 49.0438C59.2587 49.0438 33.5556 71.5682 22.263 83.2676C26.6011 50.1606 55.221 24.4973 89.7953 24.4973ZM105.605 58.7273L99.4034 69.3743C97.3597 68.5183 95.1706 67.9476 92.8947 67.6653V55.3461C93.1796 55.3614 93.4676 55.3737 93.7524 55.3921C97.9542 55.837 101.933 57.0091 105.605 58.7273ZM89.7953 110.41C79.5493 110.41 71.2169 102.153 71.2169 92C71.2169 81.847 79.5493 73.5902 89.7953 73.5902C100.041 73.5902 108.374 81.847 108.374 92C108.374 102.153 100.041 110.41 89.7953 110.41ZM70.0929 77.1832L59.3051 71.0128C61.8318 67.4168 64.987 64.2901 68.616 61.7864L74.8428 72.4764C73.0531 73.8264 71.4553 75.4097 70.0929 77.1832ZM74.8428 111.524L68.616 122.214C64.987 119.71 61.8318 116.583 59.3051 112.987L70.0929 106.817C71.4553 108.59 73.0531 110.174 74.8428 111.524ZM109.498 106.817L120.285 112.987C117.759 116.583 114.604 119.71 110.975 122.214L104.748 111.524C106.537 110.174 108.135 108.59 109.498 106.817ZM104.748 72.4764L110.975 61.7864C114.604 64.2901 117.759 67.4168 120.285 71.0128L109.498 77.1832C108.135 75.4097 106.537 73.8264 104.748 72.4764ZM86.6989 55.3491V67.6684C84.423 67.9506 82.2339 68.5213 80.1903 69.3774L73.9882 58.7304C77.6605 57.0121 81.6394 55.84 85.8443 55.3982C86.1291 55.3737 86.414 55.3645 86.6989 55.3491ZM56.218 76.3332L66.9625 82.479C66.0986 84.5041 65.5227 86.6734 65.2378 88.9286H52.7934C53.1712 84.455 54.3664 80.2177 56.218 76.3332ZM65.2378 95.0683C65.5227 97.3235 66.0986 99.4928 66.9625 101.518L56.218 107.664C54.3664 103.782 53.1712 99.545 52.7934 95.0652L65.2378 95.0683ZM73.9851 125.273L80.1872 114.626C82.2308 115.482 84.4199 116.052 86.6958 116.335V128.654C86.4109 128.639 86.1229 128.626 85.8381 128.608C81.6363 128.163 77.6574 126.991 73.9851 125.273ZM92.8916 128.651V116.332C95.1675 116.049 97.3566 115.479 99.4003 114.623L105.602 125.27C101.93 126.988 97.9511 128.16 93.7463 128.602C93.4614 128.626 93.1765 128.636 92.8916 128.651ZM123.373 107.667L112.628 101.521C113.492 99.4959 114.068 97.3266 114.353 95.0714H126.797C126.419 99.545 125.224 103.782 123.373 107.667ZM114.353 88.9317C114.068 86.6765 113.492 84.5072 112.628 82.4821L123.373 76.3363C125.224 80.2177 126.419 84.455 126.797 88.9348L114.353 88.9317ZM46.4458 92C46.4458 102.417 50.211 111.975 56.4595 119.418C39.5935 110.223 26.9633 96.9062 22.6346 91.9969C26.9633 87.0846 39.5935 73.7528 56.4812 64.5571C50.2203 72.0039 46.4458 81.5708 46.4458 92ZM133.145 92C133.145 81.5831 129.379 72.0253 123.131 64.5816C139.997 73.7773 152.627 87.0938 156.956 92.0031C152.627 96.9154 139.997 110.247 123.109 119.443C129.37 111.996 133.145 102.429 133.145 92ZM89.7953 159.503C55.221 159.503 26.6011 133.839 22.263 100.732C33.5556 112.432 59.2587 134.956 89.7953 134.956C120.332 134.956 146.035 112.432 157.327 100.732C152.989 133.839 124.37 159.503 89.7953 159.503Z" fill="#0F0C6D"/>
<mask id="path-10-outside-1_127_60" maskUnits="userSpaceOnUse" x="218.763" y="55.4588" width="237" height="73" fill="black">
<rect fill="white" x="218.763" y="55.4588" width="237" height="73"/>
<path d="M239.453 113.67L234.614 93.8283V126.733H219.763V57.4509H235.198L245.46 91.844L255.639 57.3682H270.99V126.733H256.139V93.8283L251.467 113.67H239.453ZM245.46 97.714L233.946 59.1044H221.432V125.08H232.945V80.0214L240.788 112.017H250.132L257.808 79.608V125.08H269.322V59.0217H256.89L245.46 97.714ZM292.683 57.4509H307.033L323.72 126.733H308.785L305.782 112.844H294.018L291.014 126.733H276.08L292.683 57.4509ZM292.6 111.19H307.2L310.12 125.08H321.634L305.698 59.1044H294.018L278.166 125.08H289.679L292.6 111.19ZM299.858 76.797L305.448 103.667H294.352L299.858 76.797ZM303.446 102.013L299.858 85.0646L296.354 102.013H303.446ZM366.604 102.84V111.852C366.688 119.954 360.18 127.643 351.753 127.643C351.336 127.56 351.086 127.56 350.752 127.56H347.248C346.247 127.56 345.245 127.56 344.244 127.643H342.993C334.566 127.643 328.058 120.285 328.058 112.1V72.0018C328.058 63.8996 334.65 56.4588 342.993 56.4588C344.661 56.5415 346.33 56.5415 347.915 56.5415H351.67C360.096 56.5415 366.688 63.8996 366.604 72.0845V82.915H351.586V76.797C351.753 68.7775 351.253 68.4468 346.08 68.4468C344.077 68.4468 342.826 68.7775 342.826 71.3404V112.761C342.826 115.572 345.162 115.655 347.248 115.655C351.086 115.489 351.586 110.859 351.586 105.403V102.84H366.604ZM353.255 74.7301V81.2615H364.936V72.0845C364.936 64.8917 359.262 58.195 351.753 58.195H349.667C347.415 58.195 345.245 58.1123 342.993 58.1123C335.734 58.1123 329.727 64.7264 329.727 72.0018V112.1C329.727 119.458 335.651 125.989 342.993 125.989C344.745 125.989 346.664 126.072 348.499 126.072H348.917C350.502 126.072 352.17 126.072 353.672 125.824C360.18 124.832 364.936 118.466 364.936 111.852V104.493H353.255V106.478C353.255 111.025 352.754 117.391 346.58 117.391C344.495 117.391 341.157 116.564 341.157 112.761V71.3404C341.157 67.4547 343.66 66.7933 346.08 66.7933C352.754 66.7933 353.255 69.0255 353.255 74.7301ZM387.88 100.773V126.733H373.029V57.4509H393.052C394.22 57.4509 395.388 57.3682 396.473 57.3682C397.725 57.3682 398.976 57.5336 400.144 57.8643C405.984 59.5178 411.324 65.2224 411.157 72.4152V75.4742C411.157 79.0293 411.074 82.5843 411.157 86.1394C411.324 91.596 408.32 96.4739 404.649 99.1195L413.66 126.733H398.475L390.466 100.856C389.548 100.773 388.714 100.773 387.88 100.773ZM386.211 99.1195L391.634 99.2022L399.727 125.08H411.324L402.73 98.5408L403.648 97.7967C407.236 95.2337 409.489 90.8519 409.489 86.4701V72.4152C409.489 65.3051 403.732 59.0217 396.473 59.0217L374.697 59.1044V125.08H386.211V99.1195ZM386.211 67.4547H393.219C396.723 67.4547 397.641 71.0097 397.641 72.8286V86.4701C397.641 88.9504 396.556 91.7614 393.636 91.7614L386.211 91.6787V67.4547ZM387.88 69.1082V90.0252C389.882 90.0252 391.717 90.1078 393.636 90.1078C395.472 90.1078 395.972 87.9583 395.972 86.4701V72.8286C396.056 70.8444 394.804 69.0255 393.219 69.1082H387.88ZM431.598 127.643C424.423 127.725 417.081 121.111 417.081 112.265V71.9192C417.081 63.3209 424.256 56.6241 431.181 56.5415H440.609C447.617 56.4588 455.043 63.2382 455.043 71.9192L455.126 112.265C455.126 121.111 447.701 127.725 440.609 127.643H431.598ZM418.75 112.265C418.75 119.375 424.423 125.989 431.598 125.989H440.609C447.701 125.989 453.458 119.292 453.458 112.265L453.374 71.9192C453.374 64.9744 447.617 58.195 440.609 58.195H431.181C424.423 58.195 418.75 65.1397 418.75 71.9192V112.265ZM435.269 117.308C432.015 117.308 430.18 115.324 430.18 112.017V78.4506C430.18 77.7891 430.096 76.797 430.096 75.7222C430.013 74.5648 430.013 73.3247 430.18 72.1672C430.43 69.8523 431.515 66.7106 435.186 66.7106H437.021C440.192 66.7106 442.027 69.7696 442.027 72.0845V111.769C442.027 116.481 439.274 117.308 435.269 117.308ZM431.848 111.769C431.682 114.332 433.183 115.737 434.935 115.655H435.102C438.189 115.655 440.192 115.489 440.359 111.769C440.359 109.702 440.275 107.718 440.359 105.734V75.4742C440.359 74.4821 440.275 73.4073 440.359 72.3325C440.442 70.0176 438.773 68.4468 437.021 68.3641H435.186C433.434 68.3641 431.682 69.9349 431.848 72.3325C431.932 73.4073 431.848 74.4821 431.848 75.4742V107.552C431.765 108.875 431.848 109.785 431.848 111.769Z"/>
</mask>
<path d="M239.453 113.67L234.614 93.8283V126.733H219.763V57.4509H235.198L245.46 91.844L255.639 57.3682H270.99V126.733H256.139V93.8283L251.467 113.67H239.453ZM245.46 97.714L233.946 59.1044H221.432V125.08H232.945V80.0214L240.788 112.017H250.132L257.808 79.608V125.08H269.322V59.0217H256.89L245.46 97.714ZM292.683 57.4509H307.033L323.72 126.733H308.785L305.782 112.844H294.018L291.014 126.733H276.08L292.683 57.4509ZM292.6 111.19H307.2L310.12 125.08H321.634L305.698 59.1044H294.018L278.166 125.08H289.679L292.6 111.19ZM299.858 76.797L305.448 103.667H294.352L299.858 76.797ZM303.446 102.013L299.858 85.0646L296.354 102.013H303.446ZM366.604 102.84V111.852C366.688 119.954 360.18 127.643 351.753 127.643C351.336 127.56 351.086 127.56 350.752 127.56H347.248C346.247 127.56 345.245 127.56 344.244 127.643H342.993C334.566 127.643 328.058 120.285 328.058 112.1V72.0018C328.058 63.8996 334.65 56.4588 342.993 56.4588C344.661 56.5415 346.33 56.5415 347.915 56.5415H351.67C360.096 56.5415 366.688 63.8996 366.604 72.0845V82.915H351.586V76.797C351.753 68.7775 351.253 68.4468 346.08 68.4468C344.077 68.4468 342.826 68.7775 342.826 71.3404V112.761C342.826 115.572 345.162 115.655 347.248 115.655C351.086 115.489 351.586 110.859 351.586 105.403V102.84H366.604ZM353.255 74.7301V81.2615H364.936V72.0845C364.936 64.8917 359.262 58.195 351.753 58.195H349.667C347.415 58.195 345.245 58.1123 342.993 58.1123C335.734 58.1123 329.727 64.7264 329.727 72.0018V112.1C329.727 119.458 335.651 125.989 342.993 125.989C344.745 125.989 346.664 126.072 348.499 126.072H348.917C350.502 126.072 352.17 126.072 353.672 125.824C360.18 124.832 364.936 118.466 364.936 111.852V104.493H353.255V106.478C353.255 111.025 352.754 117.391 346.58 117.391C344.495 117.391 341.157 116.564 341.157 112.761V71.3404C341.157 67.4547 343.66 66.7933 346.08 66.7933C352.754 66.7933 353.255 69.0255 353.255 74.7301ZM387.88 100.773V126.733H373.029V57.4509H393.052C394.22 57.4509 395.388 57.3682 396.473 57.3682C397.725 57.3682 398.976 57.5336 400.144 57.8643C405.984 59.5178 411.324 65.2224 411.157 72.4152V75.4742C411.157 79.0293 411.074 82.5843 411.157 86.1394C411.324 91.596 408.32 96.4739 404.649 99.1195L413.66 126.733H398.475L390.466 100.856C389.548 100.773 388.714 100.773 387.88 100.773ZM386.211 99.1195L391.634 99.2022L399.727 125.08H411.324L402.73 98.5408L403.648 97.7967C407.236 95.2337 409.489 90.8519 409.489 86.4701V72.4152C409.489 65.3051 403.732 59.0217 396.473 59.0217L374.697 59.1044V125.08H386.211V99.1195ZM386.211 67.4547H393.219C396.723 67.4547 397.641 71.0097 397.641 72.8286V86.4701C397.641 88.9504 396.556 91.7614 393.636 91.7614L386.211 91.6787V67.4547ZM387.88 69.1082V90.0252C389.882 90.0252 391.717 90.1078 393.636 90.1078C395.472 90.1078 395.972 87.9583 395.972 86.4701V72.8286C396.056 70.8444 394.804 69.0255 393.219 69.1082H387.88ZM431.598 127.643C424.423 127.725 417.081 121.111 417.081 112.265V71.9192C417.081 63.3209 424.256 56.6241 431.181 56.5415H440.609C447.617 56.4588 455.043 63.2382 455.043 71.9192L455.126 112.265C455.126 121.111 447.701 127.725 440.609 127.643H431.598ZM418.75 112.265C418.75 119.375 424.423 125.989 431.598 125.989H440.609C447.701 125.989 453.458 119.292 453.458 112.265L453.374 71.9192C453.374 64.9744 447.617 58.195 440.609 58.195H431.181C424.423 58.195 418.75 65.1397 418.75 71.9192V112.265ZM435.269 117.308C432.015 117.308 430.18 115.324 430.18 112.017V78.4506C430.18 77.7891 430.096 76.797 430.096 75.7222C430.013 74.5648 430.013 73.3247 430.18 72.1672C430.43 69.8523 431.515 66.7106 435.186 66.7106H437.021C440.192 66.7106 442.027 69.7696 442.027 72.0845V111.769C442.027 116.481 439.274 117.308 435.269 117.308ZM431.848 111.769C431.682 114.332 433.183 115.737 434.935 115.655H435.102C438.189 115.655 440.192 115.489 440.359 111.769C440.359 109.702 440.275 107.718 440.359 105.734V75.4742C440.359 74.4821 440.275 73.4073 440.359 72.3325C440.442 70.0176 438.773 68.4468 437.021 68.3641H435.186C433.434 68.3641 431.682 69.9349 431.848 72.3325C431.932 73.4073 431.848 74.4821 431.848 75.4742V107.552C431.765 108.875 431.848 109.785 431.848 111.769Z" fill="#0F0C6D"/>
<path d="M239.453 113.67L234.614 93.8283V126.733H219.763V57.4509H235.198L245.46 91.844L255.639 57.3682H270.99V126.733H256.139V93.8283L251.467 113.67H239.453ZM245.46 97.714L233.946 59.1044H221.432V125.08H232.945V80.0214L240.788 112.017H250.132L257.808 79.608V125.08H269.322V59.0217H256.89L245.46 97.714ZM292.683 57.4509H307.033L323.72 126.733H308.785L305.782 112.844H294.018L291.014 126.733H276.08L292.683 57.4509ZM292.6 111.19H307.2L310.12 125.08H321.634L305.698 59.1044H294.018L278.166 125.08H289.679L292.6 111.19ZM299.858 76.797L305.448 103.667H294.352L299.858 76.797ZM303.446 102.013L299.858 85.0646L296.354 102.013H303.446ZM366.604 102.84V111.852C366.688 119.954 360.18 127.643 351.753 127.643C351.336 127.56 351.086 127.56 350.752 127.56H347.248C346.247 127.56 345.245 127.56 344.244 127.643H342.993C334.566 127.643 328.058 120.285 328.058 112.1V72.0018C328.058 63.8996 334.65 56.4588 342.993 56.4588C344.661 56.5415 346.33 56.5415 347.915 56.5415H351.67C360.096 56.5415 366.688 63.8996 366.604 72.0845V82.915H351.586V76.797C351.753 68.7775 351.253 68.4468 346.08 68.4468C344.077 68.4468 342.826 68.7775 342.826 71.3404V112.761C342.826 115.572 345.162 115.655 347.248 115.655C351.086 115.489 351.586 110.859 351.586 105.403V102.84H366.604ZM353.255 74.7301V81.2615H364.936V72.0845C364.936 64.8917 359.262 58.195 351.753 58.195H349.667C347.415 58.195 345.245 58.1123 342.993 58.1123C335.734 58.1123 329.727 64.7264 329.727 72.0018V112.1C329.727 119.458 335.651 125.989 342.993 125.989C344.745 125.989 346.664 126.072 348.499 126.072H348.917C350.502 126.072 352.17 126.072 353.672 125.824C360.18 124.832 364.936 118.466 364.936 111.852V104.493H353.255V106.478C353.255 111.025 352.754 117.391 346.58 117.391C344.495 117.391 341.157 116.564 341.157 112.761V71.3404C341.157 67.4547 343.66 66.7933 346.08 66.7933C352.754 66.7933 353.255 69.0255 353.255 74.7301ZM387.88 100.773V126.733H373.029V57.4509H393.052C394.22 57.4509 395.388 57.3682 396.473 57.3682C397.725 57.3682 398.976 57.5336 400.144 57.8643C405.984 59.5178 411.324 65.2224 411.157 72.4152V75.4742C411.157 79.0293 411.074 82.5843 411.157 86.1394C411.324 91.596 408.32 96.4739 404.649 99.1195L413.66 126.733H398.475L390.466 100.856C389.548 100.773 388.714 100.773 387.88 100.773ZM386.211 99.1195L391.634 99.2022L399.727 125.08H411.324L402.73 98.5408L403.648 97.7967C407.236 95.2337 409.489 90.8519 409.489 86.4701V72.4152C409.489 65.3051 403.732 59.0217 396.473 59.0217L374.697 59.1044V125.08H386.211V99.1195ZM386.211 67.4547H393.219C396.723 67.4547 397.641 71.0097 397.641 72.8286V86.4701C397.641 88.9504 396.556 91.7614 393.636 91.7614L386.211 91.6787V67.4547ZM387.88 69.1082V90.0252C389.882 90.0252 391.717 90.1078 393.636 90.1078C395.472 90.1078 395.972 87.9583 395.972 86.4701V72.8286C396.056 70.8444 394.804 69.0255 393.219 69.1082H387.88ZM431.598 127.643C424.423 127.725 417.081 121.111 417.081 112.265V71.9192C417.081 63.3209 424.256 56.6241 431.181 56.5415H440.609C447.617 56.4588 455.043 63.2382 455.043 71.9192L455.126 112.265C455.126 121.111 447.701 127.725 440.609 127.643H431.598ZM418.75 112.265C418.75 119.375 424.423 125.989 431.598 125.989H440.609C447.701 125.989 453.458 119.292 453.458 112.265L453.374 71.9192C453.374 64.9744 447.617 58.195 440.609 58.195H431.181C424.423 58.195 418.75 65.1397 418.75 71.9192V112.265ZM435.269 117.308C432.015 117.308 430.18 115.324 430.18 112.017V78.4506C430.18 77.7891 430.096 76.797 430.096 75.7222C430.013 74.5648 430.013 73.3247 430.18 72.1672C430.43 69.8523 431.515 66.7106 435.186 66.7106H437.021C440.192 66.7106 442.027 69.7696 442.027 72.0845V111.769C442.027 116.481 439.274 117.308 435.269 117.308ZM431.848 111.769C431.682 114.332 433.183 115.737 434.935 115.655H435.102C438.189 115.655 440.192 115.489 440.359 111.769C440.359 109.702 440.275 107.718 440.359 105.734V75.4742C440.359 74.4821 440.275 73.4073 440.359 72.3325C440.442 70.0176 438.773 68.4468 437.021 68.3641H435.186C433.434 68.3641 431.682 69.9349 431.848 72.3325C431.932 73.4073 431.848 74.4821 431.848 75.4742V107.552C431.765 108.875 431.848 109.785 431.848 111.769Z" stroke="#0F0C6D" mask="url(#path-10-outside-1_127_60)"/>
<path d="M465.979 57.3682H478.744L489.006 103.915L499.185 57.3682H511.867L495.014 126.734H482.749L465.979 57.3682ZM518.959 126.734V57.3682H531.724V126.734H518.959ZM540.151 71.8367C540.151 62.8249 546.993 56.7068 554.168 56.5415C556.671 56.5415 559.09 56.4588 561.593 56.4588C568.936 56.4588 575.277 62.8249 575.277 71.9193V81.0964H563.262V75.5571C563.262 71.0099 562.595 66.7934 557.922 66.7934C557.839 66.7934 557.171 66.876 557.088 66.876C554.835 67.0414 552.749 68.943 552.749 72.3327C552.749 88.8681 577.279 89.9428 577.279 112.266C577.279 121.36 570.437 127.643 563.179 127.643C560.175 127.643 557.171 127.643 554.168 127.561C546.909 127.478 540.068 121.36 540.068 112.266V103.006H552.666V107.388C552.583 112.348 553.417 117.309 558.757 117.309C562.344 117.309 564.68 115.49 564.68 111.191C564.68 95.0688 540.151 94.242 540.151 71.8367ZM583.703 126.734V57.3682H596.469V126.734H583.703ZM643.191 71.8367V112.266C643.191 121.36 636.35 127.561 629.091 127.561H620.164C612.905 127.561 606.063 121.443 606.063 112.266V71.8367C606.063 62.7422 612.988 56.5415 620.247 56.5415H629.091C636.266 56.6241 643.191 62.8249 643.191 71.8367ZM618.579 77.376V108.38C618.579 109.951 618.662 111.108 618.829 113.092C618.912 116.482 621.165 117.309 624.085 117.309C627.339 117.309 630.009 117.226 630.51 113.092C630.593 111.025 630.676 108.958 630.676 106.892V74.2343C630.676 73.2422 630.593 72.1674 630.593 71.1752C630.51 68.6123 628.674 67.0414 626.588 66.7934C626.588 66.7107 624.919 66.7107 624.836 66.7107C618.745 66.7107 618.662 69.439 618.662 74.2343C618.579 75.2264 618.579 76.3012 618.579 77.376ZM679.235 57.3682H692V126.734H678.901L663.466 84.6515V126.734H650.7V57.3682H664.217L679.235 97.5491V57.3682Z" fill="#0F0C6D"/>
</g>
<defs>
<clipPath id="clip0_127_60">
<rect width="692" height="184" fill="white"/>
</clipPath>
</defs>
</svg>
